<svg id="svg" xmlns="http://www.w3.org/2000/svg" xmlns:xlink="http://www.w3.org/1999/xlink" width="400" height="649.0066225165564" viewBox="0, 0, 400,649.0066225165564"><g id="svgg"><path id="path0" d="M327.059 4.066 C 292.055 27.027,238.157 93.987,228.453 126.571 C 225.301 137.152,220.055 136.629,213.138 125.041 C 189.699 85.776,132.293 65.592,84.768 79.905 C 43.492 92.337,3.322 135.908,0.913 170.861 C 0.022 183.793,4.445 184.693,37.086 178.227 C 68.298 172.043,108.631 165.899,127.318 164.482 L 133.113 164.043 133.113 166.639 C 133.113 168.067,132.362 175.785,131.445 183.790 C 128.668 208.040,128.353 213.118,129.139 221.002 C 134.437 274.148,160.575 309.495,195.764 311.099 C 223.863 312.380,263.906 283.605,282.704 248.622 C 288.118 238.546,291.541 235.504,295.258 237.466 C 299.025 239.454,317.585 257.970,338.009 280.118 C 377.739 323.200,376.886 322.538,383.759 315.665 C 396.940 302.484,402.755 269.020,396.954 239.735 C 388.650 197.816,351.229 157.806,310.265 147.051 C 295.477 143.169,280.644 142.307,258.066 144.017 C 249.755 144.646,242.834 145.041,242.686 144.894 C 242.032 144.240,244.488 126.972,245.916 122.185 C 255.004 91.713,278.316 57.553,316.014 19.466 C 326.147 9.229,334.437 0.661,334.437 0.427 C 334.437 -0.534,332.962 0.194,327.059 4.066 M94.371 187.474 C 65.346 190.451,57.012 194.334,46.886 209.603 C 11.114 263.543,-11.132 443.251,6.347 537.086 C 16.774 593.061,32.585 623.889,59.851 641.412 C 85.067 657.617,122.919 647.446,162.259 613.894 C 224.588 560.735,297.331 442.011,330.440 339.404 C 338.548 314.276,338.613 313.086,332.382 303.843 C 328.040 297.402,299.653 263.734,297.989 263.052 C 297.730 262.946,294.243 266.969,290.240 271.992 C 239.472 335.710,185.877 348.334,144.211 306.390 C 119.645 281.660,111.017 256.529,110.129 207.119 L 109.763 186.755 104.716 186.843 C 101.940 186.892,97.285 187.176,94.371 187.474 " stroke="none" fill="#000000" fill-rule="evenodd"></path></g></svg>